# xmcd
#
# Track frame offsets: 
#        183
#        15453
#        28068
#        42948
#        54928
#        68070
#        80598
#        96353
#        108583
#        145323
#
# Disc length: 2388 seconds
#
# Revision: 2
# Processed by: cddbd v1.4PL0 Copyright (c) Steve Scherf et al.
# Submitted via: ExactAudioCopy v0.90a11
#
DISCID=8109520a
DTITLE=Big Bill Broonzy - The 1955 London Sessions
DYEAR=1995
DGENRE=Blues
TTITLE0=When do I get to be called a man
TTITLE1=Partnership Woman
TTITLE2=Southbound Train
TTITLE3=St. Louis Blues
TTITLE4=Mindin' my own business
TTITLE5=It feels so good
TTITLE6=Saturday Evening
TTITLE7=Glory of Love
TTITLE8=Southern Saga - Joe Turner Blues
TTITLE9=In the Evening - Going down this road feeling bad
EXTD=YEAR: 1995 ID3G:   0
EXTT0=
EXTT1=
EXTT2=
EXTT3=
EXTT4=
EXTT5=
EXTT6=
EXTT7=
EXTT8=
EXTT9=
PLAYORDER=
